HIERARCHY
ROOT Hips
{
  OFFSET 0 0 0
  CHANNELS 6 Xposition Yposition Zposition Zrotation Yrotation Xrotation
  JOINT LeftThigh
  {
    OFFSET 8.409438 0 -5.917753
    CHANNELS 3 Zrotation Yrotation Xrotation
    JOINT LeftLeg
    {
      OFFSET 0 0 -42.358652
      CHANNELS 3 Zrotation Yrotation Xrotation
      JOINT LeftFoot
      {
        OFFSET 0 0 -39.357303
        CHANNELS 3 Zrotation Yrotation Xrotation
      }
    }
  }
  JOINT RightThigh
  {
    OFFSET -8.409438 0 -5.917753
    CHANNELS 3 Zrotation Yrotation Xrotation
    JOINT RightLeg
    {
      OFFSET 0 0 -42.358652
      CHANNELS 3 Zrotation Yrotation Xrotation
      JOINT RightFoot
      {
        OFFSET 0 0 -39.357303
        CHANNELS 3 Zrotation Yrotation Xrotation
      }
    }
  }
  JOINT SpineLow
  {
    OFFSET 0 0 4.719101
    CHANNELS 3 Zrotation Yrotation Xrotation
    JOINT SpineMid
    {
      OFFSET 0 0 12.899191
      CHANNELS 3 Zrotation Yrotation Xrotation
      JOINT Chest
      {
        OFFSET 0 0 12.899191
        CHANNELS 3 Zrotation Yrotation Xrotation
        JOINT LeftShoulder
        {
          OFFSET 7.550562 1.41573 9.438202
          CHANNELS 3 Zrotation Yrotation Xrotation
          JOINT LeftArm
          {
            OFFSET 9.155056 0 4.247191
            CHANNELS 3 Zrotation Yrotation Xrotation
            JOINT LeftForearm
            {
              OFFSET 0 0 25.771955
              CHANNELS 3 Zrotation Yrotation Xrotation
              JOINT LeftHand
              {
                OFFSET 0 0 25.197169
                CHANNELS 3 Zrotation Yrotation Xrotation
              }
            }
          }
        }
        JOINT RightShoulder
        {
          OFFSET -7.550562 1.41573 9.438202
          CHANNELS 3 Zrotation Yrotation Xrotation
          JOINT RightArm
          {
            OFFSET -9.155056 0 4.247191
            CHANNELS 3 Zrotation Yrotation Xrotation
            JOINT RightForearm
            {
              OFFSET 0 0 -25.771955
              CHANNELS 3 Zrotation Yrotation Xrotation
              JOINT RightHand
              {
                OFFSET 0 0 -25.197169
                CHANNELS 3 Zrotation Yrotation Xrotation
              }
            }
          }
        }
        JOINT Neck
        {
          OFFSET 0 0 15.101124
          CHANNELS 3 Zrotation Yrotation Xrotation
          JOINT Head
          {
            OFFSET 0 0 11.325843
            CHANNELS 3 Zrotation Yrotation Xrotation
            End Site
            {
              OFFSET 0 0 14.157303
            }
          }
        }
      }
    }
  }
}
MOTION
Frames: 6
Frame Time: 0.0
0.0  89.887642  0.0  4.218181  -27.058081  -98.229766  6.408275  -10.579544  3.922604  4.717863  2.759543  21.64089  0.550969  1.258038  -0.906965  -4.357828  10.803667  0.851482  -15.281243  3.549938  -0.754582  6.659493  -0.149243  0.168843  0.787071  -0.073654  0.506185  2.149736  -0.217764  1.381045  2.149736  -0.217764  1.381045  -0.718726  17.768648  6.388038  145.164829  45.517323  -157.990245  -8.703158  -1.486196  22.649741  84.854976  1.048307  7.647463  -5.746317  -1.606672  18.790253  92.576266  32.65953  34.732078  0.851994  8.967326  -24.89951  90.595454  7.937561  -12.46436  -1.539009  2.804848  3.803166  -1.171546  2.094173  2.858894  
0.0  89.887642  0.0  4.23243  -27.157683  -98.378532  6.481133  -10.611566  4.020501  4.534298  2.824903  21.69709  0.624141  1.270794  -0.871384  -4.48371  10.843597  0.990296  -15.378276  3.444466  -0.838851  6.826541  -0.139999  0.152593  0.798285  -0.076222  0.507507  2.180329  -0.225057  1.384537  2.180329  -0.225057  1.384537  -0.947269  17.722004  6.462149  145.29237  45.548343  -157.958305  -8.429459  -1.40774  22.330341  84.918792  1.04971  7.578707  -5.876167  -1.422497  18.773003  92.212572  32.48401  34.393394  0.45278  8.690884  -25.528842  89.94437  8.264398  -12.463169  -1.509936  2.788191  3.923346  -1.150196  2.081569  2.948843  
0.0  89.887642  0.0  4.229311  -27.251516  -98.532219  6.580105  -10.66322  4.142135  4.435077  2.89886  21.832489  0.61628  1.254279  -0.882793  -4.461535  10.901883  1.195321  -15.389445  3.354602  -0.890554  6.956163  -0.139199  0.118557  0.81309  -0.078962  0.512653  2.22072  -0.233028  1.398455  2.22072  -0.233028  1.398454  -1.007587  17.695162  6.646241  145.388653  45.601276  -157.93498  -8.226613  -1.280024  22.07358  85.069771  0.981649  7.453752  -6.061933  -1.185932  18.767179  92.109544  32.303294  34.065035  -0.034426  8.496306  -26.315549  89.117576  8.522685  -12.507865  -1.513154  2.790304  3.996626  -1.15296  2.082956  3.003812  
0.0  89.887642  0.0  4.240527  -27.329653  -98.699382  6.662143  -10.689335  4.268344  4.329993  2.971827  21.972383  0.667119  1.246936  -0.850076  -4.626484  10.958827  1.314596  -15.251259  3.281319  -0.869391  7.180622  -0.117199  0.084115  0.839934  -0.076331  0.52675  2.294096  -0.226895  1.436974  2.294096  -0.226895  1.436974  -1.382946  17.612727  6.731035  145.570183  45.643643  -157.895621  -8.100806  -1.196226  21.855185  85.074055  1.039121  7.22508  -6.150976  -1.113429  18.80983  91.866187  32.290275  33.758206  -0.50807  8.154783  -27.256644  88.300236  8.730578  -12.610605  -1.539531  2.758538  4.060833  -1.172828  2.0588  3.052012  
0.0  89.887642  0.0  4.237967  -27.381331  -98.882882  6.708684  -10.737566  4.425713  4.255045  3.038656  22.109671  0.686383  1.224868  -0.83907  -4.64272  11.025897  1.525293  -15.309353  3.217738  -0.866475  7.364339  -0.108397  0.023115  0.849042  -0.0783  0.533327  2.318923  -0.232703  1.454846  2.318923  -0.232703  1.454847  -1.505988  17.593668  6.993136  145.722369  45.729546  -157.851433  -8.05374  -1.07411  21.633578  85.207281  1.042243  6.998019  -6.394092  -1.014935  18.775357  92.19796  32.102138  33.57662  -1.217813  7.533854  -28.333192  87.551382  8.81826  -12.698027  -1.526999  2.767752  4.124093  -1.163779  2.065639  3.099411  
0.0  89.887642  0.0  4.215107  -27.311704  -99.006141  6.684723  -10.807438  4.550586  4.412666  3.14469  22.372768  0.612105  1.120136  -0.874883  -4.947748  11.119652  1.611222  -15.230442  3.153847  -0.748096  7.601788  -0.071454  -0.060508  0.851162  -0.071572  0.534678  2.324861  -0.214411  1.458767  2.324861  -0.214411  1.458767  -1.873018  17.48017  7.213328  145.907818  45.829721  -157.793323  -8.024017  -0.944282  21.455507  85.295644  1.121237  6.764069  -6.751095  -0.977098  18.698577  92.839024  31.933755  33.464533  -2.09004  6.593066  -29.635642  86.843098  8.789478  -12.598842  -1.587675  2.725484  4.169024  -1.209203  2.033414  3.133287  
